<svg xmlns="http://www.w3.org/2000/svg" viewBox="0 0 1351.29 232.08"><defs><style>.cls-1{fill:#5b82f0;}.cls-2{fill:#fff;}</style></defs><title>logo11</title><g id="Capa_2" data-name="Capa 2"><g id="Capa_1-2" data-name="Capa 1"><path class="cls-1" d="M481.34,144.09H448.61l-5.78,15H413.29L450.94,73h28.55l37.65,86.14h-30Zm-8-20.92L465,101.52l-8.37,21.66Z"/><path class="cls-1" d="M531.42,73h29v63.62h38.88v22.52H531.42Z"/><path class="cls-1" d="M672.68,113.7h25.23v36.42c-10.46,7.14-24.86,11-37.53,11-27.81,0-48.11-18.58-48.11-45S632.57,71,661,71c17,0,30.64,5.91,39.38,16.61L681.79,104c-5.41-6.28-11.69-9.48-19.32-9.48-12.8,0-20.92,8.24-20.92,21.53,0,12.92,8.12,21.53,20.55,21.53a27,27,0,0,0,10.58-2.09Z"/><path class="cls-1" d="M716.48,116c0-26.09,20.55-45,48.61-45s48.6,19,48.6,45-20.55,45-48.6,45S716.48,142.12,716.48,116Zm67.92,0c0-13.41-8.61-21.53-19.32-21.53s-19.32,8.12-19.32,21.53,8.61,21.53,19.32,21.53S784.41,129.45,784.41,116Z"/><path class="cls-1" d="M870.79,137.45h-7.88v21.66h-29V73h41.47c24,0,39.25,12.55,39.25,32.49,0,12.43-5.91,21.78-16.24,27.07l18.09,26.58h-31Zm2.71-42.08H862.91v20.18h10.58c8,0,11.81-3.81,11.81-10.09S881.49,95.37,873.49,95.37Z"/><path class="cls-2" d="M935.14,73h29v86.14h-29Z"/><path class="cls-1" d="M1006.51,95.49H981.28V73h79.49V95.49h-25.23v63.62h-29Z"/><path class="cls-1" d="M1077.88,73h29v86.14h-29Z"/><path class="cls-1" d="M1207.45,159.11l-.25-39.25-18.7,31.5h-12.8L1157,121.21v37.9h-26.46V73h23.87l28.06,45.9L1209.78,73h23.87l.25,86.14Z"/><path class="cls-1" d="M1254.08,116c0-26.09,20.55-45,48.6-45s48.6,19,48.6,45-20.55,45-48.6,45S1254.08,142.12,1254.08,116Zm67.92,0c0-13.41-8.61-21.53-19.32-21.53s-19.32,8.12-19.32,21.53,8.61,21.53,19.32,21.53S1322,129.45,1322,116Z"/><path class="cls-2" d="M272.26,167.16l-37.9,37.9L98.79,69.5l37.9-37.9Z"/><path class="cls-1" d="M303.66,68l-1,130.16c-.2,27.39,32.91,41.25,52.27,21.88h0a37.05,37.05,0,0,0,10.85-25.92L367,28.72A24,24,0,0,0,342.91,4.58L186.27,5.75a58.33,58.33,0,0,0-40.81,17.08L98.79,69.5Z"/><path class="cls-1" d="M225.59,213.82l46.66-46.66L67.39,168.68,64.67,30.08C64.15,3.09,31.49-10.06,12.41,9l-1.55,1.55A37.05,37.05,0,0,0,0,37.5L3.36,208.59a24,24,0,0,0,24.13,23.49l157.29-1.17A58.33,58.33,0,0,0,225.59,213.82Z"/></g></g></svg>